<svg id="Layer_1" data-name="Layer 1" xmlns="http://www.w3.org/2000/svg" viewBox="0 0 1080 1080"><defs><style>.cls-1{fill:#1d1d1b;}.cls-2{fill:#fdcc68;}</style></defs><path class="cls-1" d="M781.31,997.92,765.46,882.5h-6.79c-61.14,71.9-178.88,136.24-335.11,136.24-221.9,0-335.11-130.57-335.11-263,0-221.4,235.48-342.5,658.89-340.61V396.19c0-75.69-24.9-211.93-249.06-211.93-101.89,0-208.31,26.49-285.3,68.12L167.7,142.63c90.57-49.2,221.89-81.37,360-81.37,335.11,0,416.62,191.12,416.62,374.67V778.42c0,79.48,4.53,157.06,18.12,219.5ZM751.87,530.54C534.51,526.75,287.7,558.92,287.7,736.79c0,107.86,86.05,159,187.94,159,142.64,0,233.21-75.69,264.91-153.27,6.79-17,11.32-36,11.32-53Z"/><path class="cls-2" d="M807.72,772.23c11.23,1,24.36,3.54,37.5,5.5,23.64,3.35,47.28,7.48,71.38,6A39.13,39.13,0,0,0,930.2,781c6.2-2.61,6.67-4,3.08-8.79-3.36-4.58-8.14-8.36-13.17-11.74-20.09-13.32-43-22.25-66.68-29.78C833.36,724.3,812.82,719.36,792,715c-2.87-.59-5.5-1.18-8.36-2a1.92,1.92,0,0,1-1.44-2.59c.23-1.2,1.42-1.8,2.86-1.6l5.25.78c15,3.16,30.09,5.92,45.14,9.28a317.15,317.15,0,0,1,87.22,32.53,60.07,60.07,0,0,1,12.2,7.95c9.57,8,13.42,17.53,9.15,28.31s-14.51,15.59-27.15,18c-13.36,2.22-26.26,0-39.15-2.11-20.06-3.15-39.18-9.1-58.76-13.84A128.06,128.06,0,0,0,799.41,786c-8.12-1-10.73,1.62-7.61,8,3.84,8.37,10.31,15.54,17.49,22.11,9.81,8.95,21.29,16.11,33,23.27,2.15,1.39,6,2.38,4.07,5.37-2.14,3-5,.61-7.4-.58-18.64-9.73-35.63-21.27-47.13-37.4-3.84-5.18-7-10.56-7-16.94C784.59,777.26,790.54,772.07,807.72,772.23Z"/><path class="cls-2" d="M870.08,711.06a4.16,4.16,0,0,1-2.16-3.79,4.49,4.49,0,0,1,1.89-4h.72c.24.2,1,.19,1.2.59a5,5,0,0,1,.25,6.39A2.31,2.31,0,0,1,870.08,711.06Zm28.08-28.19c9.57,7.56,20.57,13.52,27.76,22.88a14.52,14.52,0,0,1,2.15,3.59c4.08,7.77-.67,15.16-10.69,16.18-11,1-20.77-2.15-29.86-7.12a6.29,6.29,0,0,1-2.87-3.78c-1-4.59,1.17-6.59,6.66-5.6,7.41,1.58,14.34,3.36,21.5,5.14a42.5,42.5,0,0,0,6.93,1.38c5.49.39,6.92-1.41,4.52-5.79a32.82,32.82,0,0,0-7.91-8.76c-5.5-4.38-11-8.56-16.27-12.93C898.41,686.86,895.78,685.87,898.16,682.87Z"/><path class="cls-2" d="M890.34,623.65l1.92,3c5.76,10.17,11.52,20.13,17,30.29,1.92,3.19,4.07,4,8.13,4.17,18.38,1,36.55,11.89,40.19,29.83a8.23,8.23,0,0,1,.24,2.2c0,6.38-3.07,10.18-8.8,10.39-3.34.21-6-1.18-8.6-2.58a82.78,82.78,0,0,1-21.05-16.51c-4.32-4.78-4.55-4.77-11.23-2.57-5.25,1.61-10,3.62-15.26,5-15.5,4.43-31-1.33-36.56-13.08-2.64-5.39-3.14-10.77-1-16.16,2.36-6.59,9.28-9.19,16.68-6.42,6.94,2.58,12.68,6.76,16,12.54,1.2,2.19,2.16,3,4.78,2,3.1-1.4,7.88-1.41,9.3-3.41,1.9-2.4-1.45-5.38-2.65-8.17-3.84-9.37-7.93-18.54-12-27.9,0-.4-.24-.6-.48-1a1.86,1.86,0,1,1,3.34-1.6ZM885,667.34c-3.83-4.18-8.37-6.76-13.15-7.35a11.76,11.76,0,0,0-6.44.21c-3.1,1-3.57,3-.94,5C870.67,669.17,877.35,669.55,885,667.34ZM927,680a58.44,58.44,0,0,0,16.75,15.12,7,7,0,0,0,2.87,1.19c1.67.4,3.58.59,4.77-.8,1-1.2,0-2.4-.72-3.59C945.42,684.37,937.3,680.8,927,680Z"/><path class="cls-2" d="M869.81,622.69a4.14,4.14,0,0,1-2.16-3.78,4.51,4.51,0,0,1,1.9-4h.71c.24.2,1,.2,1.2.6a5,5,0,0,1,.26,6.38A2.33,2.33,0,0,1,869.81,622.69Zm28.08-28.18c9.57,7.56,20.57,13.52,27.76,22.88a14.23,14.23,0,0,1,2.16,3.58c4.08,7.78-.67,15.16-10.7,16.18-11,1-20.77-2.15-29.85-7.11a6.28,6.28,0,0,1-2.88-3.79c-1-4.58,1.17-6.58,6.67-5.6,7.4,1.58,14.33,3.36,21.5,5.14a42.2,42.2,0,0,0,6.92,1.39c5.49.38,6.92-1.42,4.52-5.8a32.94,32.94,0,0,0-7.9-8.76c-5.51-4.38-11-8.55-16.27-12.93C898.14,598.5,895.51,597.51,897.89,594.51Z"/><path class="cls-2" d="M903.4,520.69c3.58,1.19,3.59,3.78,4.31,5.58,2.88,6.77,5.53,13.55,7.7,20.32a12.1,12.1,0,0,0,6.47,7.57c4.06,2,7.41,4.77,11,7.16,11.48,7.95,11.51,18.92,6.53,28.31-5,9-15.95,13.2-29.33,11a65.1,65.1,0,0,1-32.5-14.09c-6.7-5.57-9.59-12.75-8.66-20.73,1.16-11.57,20.46-22.18,35-18.42l8.6,2C910.37,539.22,905.57,530.46,903.4,520.69ZM887,554.43c-11.93,1.63-19.77,13.81-9,22.36,5.24-5.19,5.72-5.39,13.12-3L906,579.13c2.39,1,3.82.59,5-1.21,3.8-5,5.46-10.18,5-16-.24-2-1.44-3.18-3.35-4C904.45,554.6,896.09,553,887,554.43Zm33.2,7.11c-1.18,6-1.16,11-3.06,16-1.65,5-1.17,5.79,5.27,6.37a20.19,20.19,0,0,0,6.92-.41c6.92-2.21,8.81-7.2,4.26-12.18A39.29,39.29,0,0,0,920.23,561.54Z"/><path class="cls-2" d="M906.24,434.51a5.17,5.17,0,0,1,1.91.6c9.57,8.36,19.38,16.71,29,25.27a28.5,28.5,0,0,1,5.51,7c5.28,9.36-1.38,18.15-13.79,18.38a46.53,46.53,0,0,1-12.89-2c-7.41-2.18-14.34-5-21.27-7.73-3.11-1.19-6.22-2.78-10.51-3,.48,3,2.87,4.78,4.55,6.57,5.51,5.37,11.49,10.15,17.47,14.92,9.57,7.36,19.38,14.92,29,22.48a53.89,53.89,0,0,1,5.27,4.58c2.39,3,2.64,6.57.5,9.17-2.38,2.6-5.72,2.81-9.06,2.42A156.69,156.69,0,0,1,901,525.08c-7.17-2.58-14.1-5.55-21-8.33a20.3,20.3,0,0,1-5.26-2.58c-2.87-1.79-4.07-5.58-2.65-8.18,1.66-3.19,5-2.6,8.11-2,3.59.79,7.17,2,11,3.17,10.51,3,21.26,5.94,32.25,8.31,1.91.6,3.58,1,1-1.2-5.74-4.37-11.24-8.75-17-12.93-7.18-5.57-14.6-11.14-20.35-17.71-1.67-1.79-3.11-3.38-4.55-5.17-2.64-3.39-5.27-7.17-2.18-10.77s7.87-2.81,12.17-1.82c11.7,2.37,23.41,4.94,35.35,7.3,3.58.59,8.36,2.58,10.74-.62,2.14-3-1.69-6-3.85-8.37-7.66-8.16-16.75-15.32-24.89-23.08C907.92,439.3,904.58,437.91,906.24,434.51Z"/><path class="cls-2" d="M917.25,366.47c9.09,6.36,18.18,12.73,25.84,20.29,3.83,4,6.23,8.56,4.58,13.75-2.13,7-7.37,10.59-16,10.81-4.54.21-8.6-1-13.13-1,.24,2.59,2.87,3.58,4.31,5,3.11,3,6.22,5.77,7.67,9.76,2.88,8.17-4,15.76-14,14.39-13.38-1.57-24.61-6.73-32.51-15.89-6.47-8-6.5-16.14.88-24.14a46.64,46.64,0,0,1-5-3.38c-1.67-1.39-2.63-3.19-1.44-5.18,1.18-2.2,3.33-2.6,5.72-2.61a33,33,0,0,1,9.07,1.58c12.42,2.57,24.6,5.13,36.79,7.9a31.62,31.62,0,0,0,7.4,1.18c6.21.39,8.11-2.21,5.47-6.59a18,18,0,0,0-5.27-5.58L918,371.26c-1-.8-2.15-1.4-3.11-2.19s-2.39-2-1-3.19C915.1,364.88,916.29,365.87,917.25,366.47Zm-32.33,42c-2.14,4.39,0,8,3.85,10.76,8.13,6.17,17.93,9.14,27.24,10.11a33.1,33.1,0,0,0,5.25-.21c5-.4,6.67-2.6,3.32-5.79-7.9-7.56-14.84-16.12-27-19.49C891.34,402,887.29,403.24,884.92,408.43Z"/><path class="cls-2" d="M906.58,312.43c1.69,5.39-2.59,9-5.68,13-3.09,4.4-9.78,5.21-15,8.41a26.79,26.79,0,0,0,8.14,6.57c10,5.56,20.32,11.12,30.36,16.49,4.31,2.38,9.8,2.77,14.58,4.36,6.93,2.77,9.33,7.16,7.43,13.15-.94,3-2.85,4.19-6.67,4.2a112.89,112.89,0,0,1-22.92-2.75c-10-2.17-20.3-4.34-29.86-8.51-2.39-1.19-5-2.18-5.74-4.78-2.17-5.78.92-9.17,8.08-9.59,5-.21,9.56,1.58,15.28.77-2.63-2.59-6.22-3.58-9.09-5.37-4.3-2.38-9.08-4.77-12.67-8.35-5.75-6-4.09-12.16,4.49-14.77A42.83,42.83,0,0,0,906.58,312.43Z"/><path class="cls-2" d="M886,213.94c3.82.59,4.06,2.59,5.26,4.18,7,9.56,15.09,18.52,22.52,27.88a15.33,15.33,0,0,0,8.85,4.77,274.78,274.78,0,0,1,33.68,8.9c10.75,3.77,20.32,8.93,27.74,16.5,4.07,4.38,7,9,7.44,14.54.75,8.58-5.92,13.58-16,11.81-7.65-1.38-13.86-4.76-19.84-8.94a146.09,146.09,0,0,1-22.26-19.5,18.76,18.76,0,0,0-10.76-5.76c-6.69-1.38-13.13-3-19.58-4.55-4.3-1.18-3.35-.19-.72,1.4a133.76,133.76,0,0,1,16.75,11.93c4.55,4,9.09,8,12,13.14,6.48,11.56-1.37,21.55-16.88,21.58-13.37,0-25.55-3.34-37.5-7.5-3.82-1.39-6.69-3.58-6.94-7.17-.49-4.18,1.41-6,6.19-5.59a90.29,90.29,0,0,1,12.89,2.16,144.69,144.69,0,0,0,26.27,3.14c4.06,0,9.07.58,11-3,1.9-3.19-1.45-6.18-3.61-9A42.56,42.56,0,0,0,911,274.73c-11-7-22.25-14.12-36.1-17.48-4.54-1-8.6-2.77-8.62-7.76,0-3.39.71-4.39,4.76-4.8,6.92-.61,13.61,0,20.53.76L909.73,248C901.82,236.05,892,226.3,886,213.94Zm58.66,60.91c6.46,6,13.16,11.55,21.29,15.92a50.86,50.86,0,0,0,7.65,3.37,14.13,14.13,0,0,0,6.45.39c3.58-.61,4.52-2.8,1.89-5.19a33.12,33.12,0,0,0-4.54-3.18C967.59,280.19,956.6,277,944.66,274.85Z"/><path class="cls-2" d="M758.67,882.5h6.79l1.15,8.42c8-15.36,9.55-31.73,3.75-45.82-8.9-21.6-35.32-38.38-67.25-42.77-45.87,52.5-122.6,93.41-227.47,93.41-101.89,0-187.94-51.09-187.94-159,0-105.72,87.2-160,203.59-185.79,15.79-15.38,28.18-33.88,25.27-52.67-3.4-22-27.72-44-67.3-58.85C215,485.06,88.45,593.44,88.45,755.72c0,132.45,113.21,263,335.11,263C579.79,1018.74,697.53,954.4,758.67,882.5Z"/><path class="cls-1" d="M195.07,472.11c-5.43,12.4-11.65,22.54-20.06,31.72-6.23,6.61-6,6.9.25,11.48,3.38,2.58,6.71,5.47,10.61,7.56,6.37,3.35,13.08,6.36,22.21,2.51.06,3.22-1.38,4.82-3.71,6.17-7.13,3.91-14.47,5.83-21.65,4.06a49.62,49.62,0,0,1-20-10c-1.8-1.59-3.65-2.87-5.62-4.3-1.13-.86-2.37-.79-3.91.36-4.39,3-8.95,6.15-13.48,9-3.34,2-4.09,4.36-3.77,7.86a182.22,182.22,0,0,1-.06,44.46c-.51,4-1.19,8.18-3.35,11.82-2.11,3.33-4.5,6.37-8.85,6.6-.93.05-1.83-.21-2-1.12a2.06,2.06,0,0,1,1.24-2.52c7.69-2.24,8-8.23,8.86-13.95,2.09-15.29,1.21-30.26-.79-45a4.94,4.94,0,0,0-.83-1.95c-7.13,3.9-14.49,7.2-20.88,12.6-3.28,2.78-6.11,5.68-7.82,9.45-1.21,2.21-1.87,5-.2,6.45,1.36,1.46,3.53-1.1,5.4-1.2-1,5.26-3.5,8.15-6.92,8.33-3.24,0-6-4-5-8.16,1.83-7.15,6.57-12.92,12.13-17.81,5.38-4.73,11.63-7.82,17.44-11,6.11-3.24,6.11-3.24,5.21-9.47-4.16-24.46-9.92-48.53-18.13-71.39a64.63,64.63,0,0,1-2.47-6.15q-1.42-5.22,3.33-8c3-2,4.7-.55,6.64,1.19,6.79,7.3,11.38,16.1,17,24.54,8.71,12.88,17.59,25.59,27.66,37.47,3.4,3.66,3.53,3.8,7.77-.41,7.24-7.28,12.61-15.53,17.39-24.06C190.13,477,190.66,474,195.07,472.11Zm-42,45.6c-9-9.33-16.51-19.51-24.15-29.84,1.66,13.71,4.43,27.21,6.22,41.06A105.72,105.72,0,0,0,153.05,517.71Z"/><path class="cls-1" d="M218.8,482.27c.66,2.14,1,4.23,1.67,6.38a3.94,3.94,0,0,0,4,3.71,26.47,26.47,0,0,1,12,4.72c7.13-13.14,11-26.75,17.19-39.6,3.06.57,1.78,2.2,1.44,3.54a164.69,164.69,0,0,1-14,35.06,6.57,6.57,0,0,0-.21,7.44c5.29,8.46,9.76,17.39,11.53,27.38a24.82,24.82,0,0,1,.09,11.38c-2,8.2-10.38,12.23-17.75,8.36-4.15-2-7-5.21-9.59-8.8a106.64,106.64,0,0,1-10-18.85c-.95-2.67-2.24-4-5.72-4.34-11.74-1.41-14.77-10.23-6.52-19.43,2.12-2.57,2.47-4.37,1.83-7-5-18.69-6.72-38.31-6.26-58.47.11-7.61,1-15.22,4.43-22.84,2.84-6.17,7.17-11.11,14.62-13.46,5.48-1.93,8.83-.84,11.69,3.28A31.51,31.51,0,0,1,233.59,415c.78,12.14-1.21,24.69-5.14,37.19-2,6.63-4.27,13.37-8,19.83-2.15,3.49-2.75,6.81-1.62,10.29Zm-9,28.83a12.62,12.62,0,0,0-3.06-7.89c-1,5.58-1,5.58,3.06,7.89ZM216,469c.38,1.16.47,1.8,1.55-.17,2.27-4.25,3.52-8.84,4.87-13.26,3.92-15.46,7.32-30.87,3.94-45.67-.53-2.9-1.27-5.69-3.27-7.77-2.88-3.19-6.79-2.36-9.68,1.77A15.24,15.24,0,0,0,211,409.8a51,51,0,0,0-.8,14.18c1.44,10.85,2.67,21.83,3.9,32.8Zm10.6,38.89c5.46-4.9,5.38-5.54-2.66-7.66.54,2.9.88,5.46,2.66,7.66Zm6.36-.37c-2.48.94-5.38,5.53-4.83,8,2.64,8.13,5.17,16.54,9.58,23.9,1.46,2.61,3.13,5.11,6.58,6.37.74-.64.94-.75,1.06-1.05,3.16-14.35-2-25.89-9.84-36.56A2.06,2.06,0,0,0,233,507.49Z"/><path class="cls-1" d="M271.34,455.18c.42,2.21.54,4.32,1,6.53a3.94,3.94,0,0,0,3.57,4.11,26.46,26.46,0,0,1,11.37,6c8.51-12.3,13.83-25.4,21.39-37.51,3,.9,1.53,2.38,1,3.68A163.75,163.75,0,0,1,292,471.33a6.58,6.58,0,0,0-1,7.37c4.35,9,7.82,18.35,8.49,28.47a25,25,0,0,1-1.14,11.32c-2.85,7.94-11.64,11-18.55,6.39-3.9-2.46-6.42-5.94-8.58-9.79-3.4-6.14-5.77-12.94-7.93-19.82-.65-2.76-1.79-4.23-5.21-4.94-11.52-2.68-13.58-11.78-4.38-20,2.38-2.32,2.94-4.07,2.58-6.74-3-19.12-2.53-38.81.12-58.8.93-7.55,2.68-15,6.87-22.22,3.49-5.83,8.34-10.28,16-11.8,5.66-1.33,8.88.12,11.27,4.52a31.62,31.62,0,0,1,2.85,14.62c-.53,12.15-3.87,24.41-9.14,36.41-2.73,6.37-5.69,12.83-10.13,18.84-2.51,3.24-3.47,6.47-2.72,10.05Zm-12.08,27.69a12.61,12.61,0,0,0-2.18-8.17c-1.58,5.44-1.58,5.44,2.18,8.17ZM270,441.66c.25,1.2.26,1.84,1.55,0,2.72-4,4.46-8.4,6.29-12.65,5.56-14.95,10.61-29.89,8.86-45-.21-2.94-.65-5.79-2.4-8.08-2.52-3.48-6.51-3.08-9.82.71a15.39,15.39,0,0,0-3.05,5.63,50.61,50.61,0,0,0-2.33,14c.25,10.95.28,22,.32,33Zm6.31,39.81c6-4.28,5.95-4.92-1.8-7.91.21,2.95.27,5.52,1.8,7.9Zm6.37.32c-2.57.66-5.95,4.92-5.67,7.4,1.75,8.36,3.35,17,6.93,24.8,1.17,2.75,2.57,5.41,5.86,7,.8-.56,1-.65,1.16-.93,4.7-13.93.88-26-5.82-37.42A2,2,0,0,0,282.67,481.79Z"/><path class="cls-1" d="M351.8,419.79c-6,10.47-9.88,21.45-18.59,30.71a20.35,20.35,0,0,1-3.5,3.08c-7.73,6.19-17.38,5.23-21.19-2.32-4.07-8.31-3.07-17.28.16-26.37a7.75,7.75,0,0,1,3.53-3.72c5-2.51,7.78-1.58,8.12,3.15.17,6.47,0,12.64-.13,19a26,26,0,0,0,.27,6c1,4.5,3.43,4.94,7.77,1.37a38.14,38.14,0,0,0,7.84-9.59c3.51-6,6.79-12,10.36-17.82C347.35,421.51,347.77,419.05,351.8,419.79Zm-39.41-11.52a5.66,5.66,0,0,1,3.72-3.16,6.45,6.45,0,0,1,5,0l.19.56c-.16.27,0,.84-.35,1.18a8,8,0,0,1-7.18,2.63C313.29,409.44,312.29,408.72,312.39,408.27Z"/><path class="cls-1" d="M418.58,410.42c-5.89,3-10.95.59-16.22-.72-5.74-1.18-8.07-6.35-12.87-9.63a26.22,26.22,0,0,0-5.91,8.55c-4.36,9.79-8.66,19.78-12.79,29.51-1.86,4.2-1.17,8.76-2,13.1-1.77,6.44-6.35,9.7-13.69,10-3.66.13-5.45-1.05-6.25-4.14-1.61-6.18-1.84-12.72-1.6-19.37.43-8.77.81-17.74,3.64-26.72.89-2.29,1.49-4.72,4.34-6.08,6.25-3.48,10.83-2,12.8,3.67,1.29,4,.16,8.21,2.29,12.6,2.45-2.91,2.85-6.1,4.33-9,1.86-4.2,3.63-8.78,7-12.76,5.73-6.44,13.24-7,18.05-.79C404.43,404.42,410.77,407.92,418.58,410.42Z"/><path class="cls-1" d="M573.47,391.91c-7,13.15-16.54,24.87-27.19,35.95-4.39,4.49-9.61,8.3-16.87,8.18-9.15.16-13.93-2.75-16.21-9.87a45.29,45.29,0,0,1-2.07-18.65,150.85,150.85,0,0,1,10-38.21c1.77-4.3,3.78-8.63,3.92-14.1a57.52,57.52,0,0,0-9.64,8.1c-15.34,15.22-26.93,32.89-39.11,49.85-1.35,2.22-2.45,4.6-4.63,6.14a9,9,0,0,1-8,1.2c-2.78-.79-2.4-3.07-2.43-4.88a102.82,102.82,0,0,1,2.21-14.25c.91-3.56,2-7.36,0-11.1-3.95,1-5.51,3.45-7.4,5.35-10.88,11.12-19.94,23.17-28.75,35.18-2.45,3-4.69,5.75-9.74,5.9-4.31.24-6.14-.69-6.91-4.21a23.76,23.76,0,0,1-.09-7.05c1.83-12,5.39-23.6,9-35.23a12,12,0,0,1,1.47-3c1.74-2.89,4.42-4.3,8.32-4.08,3.69.46,5.87,2.15,6.35,5.31a44,44,0,0,1,0,7.87c-.26,4.67-.76,9.39-1.17,14.7,3.12-1.68,4.45-4.1,6.07-6.16a73.78,73.78,0,0,1,15.34-15.21,27.57,27.57,0,0,1,5.75-3.49c5.19-2.39,13.16-.76,13.87,5.58.12,2.41.74,4.94,1.28,8.49,4.27-5.28,8.17-9.9,11.85-14.29a288.42,288.42,0,0,1,24.16-27.22,51,51,0,0,1,9-7.41c8.71-4.74,16.32-2.25,17.09,6.11.63,9-1.44,17.76-3.26,26.51-2,11-3.68,22.14-4,33.07a6.2,6.2,0,0,1-.17,2c.29,3.59.06,8.47,3.87,9.71,3.57,1.28,6.75-3.23,9.52-5.66,6.88-5.68,11.36-12.8,16.37-19.61,3-3.88,5.58-7.89,8.35-11.94,1.24-1.4,1.91-3.31,4.63-2.91C575.6,390,574.06,391,573.47,391.91Z"/><path class="cls-1" d="M631.38,382.89c-.18.82.1,1.4-.12,1.61-11.38,10.88-22.5,21.93-37.74,29.3a28.34,28.34,0,0,1-18.45,2.81c-9.21-1.5-14.37-6.3-14.26-14.31.76-15.07,7.7-27.6,22.28-37.32a28.07,28.07,0,0,1,17.35-4.73c3.84.11,7.75,1.21,9.44,4.48,1.65,2.88-.54,5.45-2.52,7.8a51.82,51.82,0,0,1-20,13.33c-3,1-4.6,2.56-5.11,5.2-.81,5.06-2.83,10-2.18,15.37.64,5.15,2.87,6.18,8.71,4.33a44.55,44.55,0,0,0,13.11-7c7.46-5.77,14.67-11.73,21.87-17.68C625.76,384.53,627.49,382.19,631.38,382.89Zm-44.25-2.61c6.54-2.1,11.82-5.11,15.77-9.81,1.09-1.29,1.46-2.71.17-4a4.78,4.78,0,0,0-5.57-.77,7.39,7.39,0,0,0-3,2A29.35,29.35,0,0,0,587.13,380.28Z"/><path class="cls-1" d="M731,308.26a59.85,59.85,0,0,1-8.47,16.68c-9.54,13.32-18.6,27-33,37.53-1.63,1.26-2.05,2.87-2.71,4.49-4.66,16.34-6.45,32.77-8.23,49.4a23.24,23.24,0,0,0,2.09,11.31c2.34,5.3,4.77,6.61,11.69,6.36,1.44.14,2.87.09,4.55.23.24,0,.74.57,1.47,1.14-11.75,5.22-23.08,2.44-29.15-6.92a33.17,33.17,0,0,1-4.55-20c.46-7,1.41-13.83,2.1-21-2.84.7-3.72,2.73-5.11,4a74.47,74.47,0,0,1-14,10.49,20.73,20.73,0,0,1-12.55,2.85c-5.52-.6-9.69-3.64-10.8-8-5-18.78,18.5-42.79,41.46-42l.71,0c2.85-.5,5.82,2.39,7.89.12,1.85-1.67,2-4.47,2.86-6.69,4.57-12.15,8.91-24.28,15.65-35.91a79.44,79.44,0,0,1,12.29-16.61c2.76-2.9,5.78-5.4,10.27-6.56,9-2.73,16,1,17,9C733.09,301.4,732.26,304.82,731,308.26Zm-69.07,51.22a17.91,17.91,0,0,0-5.64,2.6c-12.58,8.65-15.7,21.33-19.36,32.45.19,5.18,2.38,6.3,6.37,4.36,8.21-4.1,14.2-10.1,20.43-16.12,5.08-4.77,7-10.43,8-16.46C672.66,360.49,668.51,358,661.88,359.48Zm61-63.1c-.81-2.56-2.73-2.89-5-1a45,45,0,0,0-9.35,12.12c-7.86,13.85-12.33,28.79-17,43.73-.22.41.05,1.2.31,1.79,2.37-.49,3.26-2.12,4.41-3.56a217.31,217.31,0,0,0,19.59-25.86A50.75,50.75,0,0,0,723.06,308,19.19,19.19,0,0,0,722.87,296.38Z"/></svg>